<svg data-v-423bf9ae="" xmlns="http://www.w3.org/2000/svg" viewBox="0 0 509 90" class="iconLeft"><!----><!----><!----><g data-v-423bf9ae="" id="227bdbd9-25de-43f9-bace-75ec8931d584" fill="white" transform="matrix(3.5026271418284693,0,0,3.5026271418284693,192.38938419574268,15.000000953674316)"><path d="M1.28 12.88L2.36 12.88L2.36 0L1.28 0ZM11.71 9.31C11.66 7.30 10.06 5.74 8.07 5.74C6.06 5.74 4.43 7.37 4.43 9.38C4.43 11.39 6.06 13.02 8.07 13.02C9.73 13.02 11.11 11.92 11.57 10.41L10.41 10.41C10.03 11.32 9.12 11.94 8.07 11.94C6.69 11.94 5.58 10.89 5.51 9.54L11.69 9.54ZM8.07 6.83C9.19 6.83 10.13 7.54 10.47 8.56L5.65 8.56C6.00 7.54 6.95 6.83 8.07 6.83ZM21.21 11.97C20.83 11.97 20.49 11.71 20.49 11.06L20.49 5.88L19.41 5.88L19.41 6.79C18.76 6.14 17.85 5.74 16.85 5.74C14.84 5.74 13.21 7.37 13.21 9.38C13.21 11.39 14.84 13.02 16.85 13.02C17.90 13.02 18.85 12.53 19.51 11.81C19.74 12.53 20.30 13.02 21.12 13.02C21.32 13.02 21.51 12.97 21.65 12.88L21.65 11.97ZM16.85 11.94C15.44 11.94 14.30 10.80 14.30 9.38C14.30 7.96 15.44 6.83 16.85 6.83C18.25 6.83 19.41 7.96 19.41 9.38C19.41 10.80 18.25 11.94 16.85 11.94ZM26.55 5.74C25.55 5.74 24.75 6.18 24.22 6.88L24.22 5.88L23.14 5.88L23.14 12.88L24.22 12.88L24.22 9.08C24.22 7.81 25.27 6.83 26.55 6.83C26.76 6.83 26.93 6.84 27.09 6.90L27.09 5.79C26.93 5.76 26.76 5.74 26.55 5.74ZM31.24 5.74C30.59 5.74 30.00 6.00 29.54 6.44L29.54 5.88L28.46 5.88L28.46 12.88L29.54 12.88L29.54 8.42C29.54 7.53 30.26 6.83 31.15 6.83C32.04 6.83 32.74 7.53 32.74 8.42L32.74 12.88L33.83 12.88L33.83 8.42C33.83 6.93 32.59 5.74 31.24 5.74ZM36.98 4.57C37.38 4.57 37.73 4.23 37.73 3.83C37.73 3.39 37.38 3.08 36.98 3.08C36.56 3.08 36.21 3.39 36.21 3.83C36.21 4.23 36.56 4.57 36.98 4.57ZM36.44 12.88L37.52 12.88L37.52 5.88L36.44 5.88ZM42.98 5.74C42.33 5.74 41.74 6.00 41.28 6.44L41.28 5.88L40.20 5.88L40.20 12.88L41.28 12.88L41.28 8.42C41.28 7.53 42.00 6.83 42.89 6.83C43.79 6.83 44.49 7.53 44.49 8.42L44.49 12.88L45.57 12.88L45.57 8.42C45.57 6.93 44.33 5.74 42.98 5.74ZM53.73 5.88L53.73 6.75C53.08 6.13 52.17 5.74 51.19 5.74C49.18 5.74 47.55 7.35 47.55 9.38C47.55 11.39 49.18 13.02 51.19 13.02C52.19 13.02 53.08 12.62 53.74 11.97L53.74 13.49C53.74 14.89 52.59 16.05 51.19 16.05C50.05 16.05 49.09 15.30 48.76 14.28L47.76 14.72C48.27 16.14 49.61 17.13 51.19 17.13C53.20 17.13 54.83 15.51 54.83 13.49L54.83 5.88ZM51.19 11.94C49.77 11.94 48.63 10.78 48.63 9.38C48.63 7.96 49.77 6.83 51.19 6.83C52.59 6.83 53.74 7.96 53.74 9.38C53.74 10.78 52.59 11.94 51.19 11.94ZM61.60 12.88L62.69 12.88L62.69 0L61.60 0ZM68.39 13.02C70.40 13.02 72.03 11.39 72.03 9.38C72.03 7.37 70.40 5.74 68.39 5.74C66.38 5.74 64.75 7.37 64.75 9.38C64.75 11.39 66.38 13.02 68.39 13.02ZM68.39 11.94C66.97 11.94 65.84 10.80 65.84 9.38C65.84 7.96 66.97 6.83 68.39 6.83C69.79 6.83 70.95 7.96 70.95 9.38C70.95 10.80 69.79 11.94 68.39 11.94ZM77.25 13.02C79.26 13.02 80.89 11.39 80.89 9.38C80.89 7.37 79.26 5.74 77.25 5.74C75.23 5.74 73.61 7.37 73.61 9.38C73.61 11.39 75.23 13.02 77.25 13.02ZM77.25 11.94C75.83 11.94 74.69 10.80 74.69 9.38C74.69 7.96 75.83 6.83 77.25 6.83C78.65 6.83 79.80 7.96 79.80 9.38C79.80 10.80 78.65 11.94 77.25 11.94ZM86.59 5.74C85.59 5.74 84.70 6.14 84.04 6.79L84.04 5.88L82.95 5.88L82.95 17.08L84.04 17.08L84.04 11.97C84.70 12.62 85.59 13.02 86.59 13.02C88.60 13.02 90.23 11.39 90.23 9.38C90.23 7.37 88.60 5.74 86.59 5.74ZM86.59 11.94C85.17 11.94 84.04 10.80 84.04 9.38C84.04 7.96 85.17 6.83 86.59 6.83C88.01 6.83 89.15 7.96 89.15 9.38C89.15 10.80 88.01 11.94 86.59 11.94Z"></path></g><!----><g data-v-423bf9ae="" id="14571415-61d4-4e3c-96c9-cc6d3496dce7" transform="matrix(3.75422356834678,0,0,3.75422356834678,-6.4710954800913925,-50.041553758309576)" stroke="none" fill="white"><path d="M37 13.45v.28l-.047-.28c-2.045.016-4.208.87-5.751 1.912-2.322 1.588-3.921 3.763-5.374 5.556-.135.167-1.358 1.82-2.716 3.617-1.352 1.792-2.842 3.725-3.444 4.366-1.01 1.082-1.775 2.239-2.842 2.946C15.78 32.555 14.435 33 13.849 33h-.044c-2.021 0-3.838-.934-5.174-2.264a7.431 7.431 0 0 1-2.146-5.241c.001-2.032.816-3.931 2.146-5.266C9.967 18.899 11.784 18 13.815 18h.039c.603 0 1.617.408 2.699 1.157 1.54 1.04 2.801 2.396 4.051 3.907l.226.289 2.859-3.831-.147-.167c-.199-.229-.036-.089-.25-.323-1.188-1.293-2.193-2.613-3.743-3.671-1.548-1.042-3.687-1.896-5.731-1.912-6.624.003-11.988 5.366-11.99 11.987.002 6.62 5.366 11.984 11.987 11.986 2.047-.016 4.186-.87 5.731-1.912 2.321-1.588 3.909-3.763 5.362-5.557.133-.165 1.351-1.818 2.708-3.616 1.352-1.791 2.84-3.725 3.443-4.366 1.008-1.083 2.145-2.175 3.213-2.882C35.32 18.382 36.291 18 36.877 18h.02c2.047 0 3.863.87 5.197 2.201a7.348 7.348 0 0 1 2.146 5.209c-.002 2.031-.814 3.978-2.146 5.313C40.76 32.054 38.943 33 36.91 33h-.037c-.604 0-1.992-.472-3.074-1.222-1.539-1.038-2.533-2.531-3.781-4.043l-.229-.303-2.857 3.821.148.164c.199.229.141.191.354.425 1.188 1.292 2.193 2.61 3.742 3.669 1.547 1.042 3.688 1.896 5.732 1.911 6.623-.001 12.031-5.366 12.033-11.986C48.939 18.816 43 13.452 37 13.45z"></path></g><!----></svg>